<?xml version="1.0" encoding="utf-8"?>
<!-- Generator: Adobe Illustrator 25.4.1, SVG Export Plug-In . SVG Version: 6.00 Build 0)  -->
<svg version="1.1" id="Layer_1" xmlns="http://www.w3.org/2000/svg" xmlns:xlink="http://www.w3.org/1999/xlink" x="0px" y="0px"
	 viewBox="0 0 185.3 187.9" style="enable-background:new 0 0 185.3 187.9;" xml:space="preserve">
<style type="text/css">
	.st0{fill:#AFCA0B;}
</style>
<g>
	<g>
		<path class="st0" d="M151.8,181.5H33.5c-15.7,0-28.4-12.7-28.4-28.4V34.8c0-15.7,12.7-28.4,28.4-28.4h118.3
			c15.7,0,28.4,12.7,28.4,28.4v118.3C180.2,168.8,167.4,181.5,151.8,181.5z M33.5,9.8c-13.8,0-25,11.2-25,25v118.3
			c0,13.8,11.2,25,25,25h118.3c13.8,0,25-11.2,25-25V34.8c0-13.8-11.2-25-25-25H33.5z"/>
	</g>
	<g>
		<path class="st0" d="M77.3,41.9c-0.1-2.6-0.2-5-0.3-7.4c-0.1-2.6,1.1-4,3.8-4.2c6.3-0.3,12.7-0.5,19-0.8
			c13.5-0.6,26.9-1.1,40.4-1.7c1.9-0.1,3.7-0.2,5.6-0.2c2.6,0,4,1.2,4.1,3.7c0.5,11,0.9,22,1.4,33c0.1,1.9,0.1,3.8,0.2,5.7
			c0.1,2.6-1,4-3.6,4.1c-9.8,0.5-19.5,0.9-29.3,1.3c-6.4,0.3-12.8,0.5-19.2,0.8c-1.2,0-1.7,0.4-2,1.7c-0.6,2.3-1.4,4.6-2.6,6.6
			c-1.9,3.1-4.3,3.4-7.2,1.5c-1.8,1.1-3.6,2.2-5.5,3.1c-0.9,0.5-2,0.7-3.1,0.8c-2.5,0.3-3.5-1.2-3.6-5c-0.9,0.6-1.7,1.1-2.4,1.6
			c-3.4,2.5-6.7,5.3-10.3,7.5c-2.5,1.5-5.4,2.5-8.3,3.2c-4.6,1.1-9.4,1.8-14.1,2.6c-0.2,0-0.4,0-0.5,0.1c-3,0.7-3,0.7-4.3-2.2
			c-3.5-7.8-6.9-15.7-10.5-23.5c-0.7-1.6-0.6-2.5,1.2-2.9c2.7-0.7,4.5-2.4,6.2-4.6c5.7-7.3,11.6-14.5,17.3-21.8
			c1.9-2.4,3.9-3.7,7.1-3.5c6.3,0.3,12.7,0.2,19.1,0.2C76.3,42,76.7,41.9,77.3,41.9z M38.1,98.4c5.1-1,10-2,14.9-2.7
			c3.7-0.6,7.1-1.8,10-4.1c10.1-8,21.1-14.7,32.2-21c1-0.6,1.9-1.5,2.7-2.4c2.6-3.3,1.1-7-3.1-7.7c-2.8-0.4-5.3,0.4-7.8,1.6
			c-5.5,2.7-11,5.4-16.5,8c-0.5,0.2-1.2,0.2-1.8,0.2c-0.1-0.6-0.3-1.2-0.2-1.8c0.5-2.6,0.1-4.9-1.6-6.9c-1.3-1.6-1.1-2.9,0.7-3.8
			c1.2-0.6,2.6-0.8,3.9-1c2.1-0.3,4.3-0.5,6.5-0.8c-0.2-4.1-0.4-7.9-0.5-11.8c-6.9,0-13.5,0.1-20.2-0.2c-2.8-0.1-4.4,1-6,3
			c-5.6,7.1-11.3,14.1-16.9,21.3c-1.8,2.3-3.6,4.6-6.7,5.3c-0.1,0-0.2,0.3-0.4,0.5C30.8,82.1,34.4,90.2,38.1,98.4z M79.3,46.6
			c23.3-1,46.2-2,69.4-2.9c-0.1-1.6-0.2-3-0.2-4.6c-23.2,1-46.2,2-69.3,2.9C79.2,43.6,79.3,45,79.3,46.6z M133.1,68.2
			c3.9-0.2,7.4-0.3,11.1-0.5c-0.1-2.2-0.2-4.2-0.3-6.3c-3.8,0.2-7.4,0.3-11.1,0.5C132.9,64,133,66,133.1,68.2z M71.4,67.2
			c1.9-0.9,4-1.9,6.1-3c0.4-0.2,0.8-0.8,0.8-1.2c0-1.5-0.1-3.1-0.2-4.8c-3.3,0.4-6.4,0.8-9.3,1.2C69.7,62.2,70.5,64.6,71.4,67.2z
			 M95.6,76.6c-2.1,0.1-4,0.1-5.8,0.3c-0.6,0.1-1.6,0.9-1.6,1.4c0,1.7,0.2,3.4,0.6,5c0.6,2.2,2.1,2.5,3.7,0.9
			C94.5,82.1,95,79.5,95.6,76.6z M85.8,78.9c-2,1.2-3.8,2.4-5.7,3.4c-1.8,0.9-2.2,2.4-2.4,4.1c-0.1,1.3,0.5,2,1.7,1.4
			c2.3-1.1,4.5-2.4,6.7-3.6c0.2-0.1,0.4-0.5,0.3-0.7C86.3,82,86.1,80.5,85.8,78.9z"/>
	</g>
	<g>
		<path class="st0" d="M36.7,103.5c-3.8,1.6-7.3,3.1-11.1,4.7c-4.7-11-9.4-21.9-14.2-32.9c3.6-1.4,7.1-2.8,10.7-4.3
			C27,81.9,31.8,92.6,36.7,103.5z"/>
	</g>
	<path class="st0" d="M40.9,152.6v2.8c0,0.1-0.1,0.2-0.2,0.2h-0.9c-0.7,0-1.2-0.2-1.7-0.5c-0.5,1.3-1.4,2.3-2.6,3.1
		c-1.2,0.8-2.5,1.2-3.9,1.2c-1.3,0-2.5-0.3-3.6-0.9c-1.1-0.6-2-1.5-2.6-2.5c-0.6-1.1-1-2.2-1-3.5v-4h3.2v3.9c0,0.7,0.2,1.3,0.5,1.9
		c0.4,0.6,0.8,1.1,1.4,1.4c0.6,0.3,1.3,0.5,2,0.5c0.7,0,1.4-0.2,2-0.5c0.6-0.3,1.1-0.8,1.4-1.4c0.4-0.6,0.5-1.2,0.5-1.9v-11.2h3.2
		v10.3c0,0.3,0.1,0.5,0.3,0.7c0.2,0.2,0.4,0.3,0.7,0.3h0.9C40.8,152.3,40.9,152.4,40.9,152.6z"/>
	<path class="st0" d="M40.5,155.4v-2.8c0-0.1,0.1-0.2,0.2-0.2h4.6c1.1,0,2.1-0.3,2.9-1l2.1-1.9l-3.1-1.4c-0.3-0.1-0.5-0.2-0.7-0.2
		c-0.2,0-0.4,0-0.6,0.1c-0.2,0.1-0.3,0.2-0.5,0.3l-2,2.2l-2.2-1.9l2-2.4c0.4-0.5,0.9-0.8,1.5-1.1c0.6-0.2,1.1-0.4,1.7-0.4
		c0.4,0,0.8,0,1,0.1c0.3,0.1,0.6,0.2,0.9,0.4l4.7,2.2c0.1,0,0.2,0.1,0.4,0.1h2.4v3h-2.5l-0.4,0.3v0.5c0,0.3,0.1,0.5,0.3,0.7
		c0.2,0.2,0.4,0.3,0.7,0.3h2.5c0.1,0,0.2,0.1,0.2,0.2v2.8c0,0.1-0.1,0.2-0.2,0.2H54c-0.9,0-1.6-0.2-2.2-0.7c-0.6-0.5-1-1.1-1.2-1.9
		l-0.8,0.7c-0.7,0.6-1.5,1.1-2.3,1.4c-0.9,0.3-1.8,0.5-2.7,0.5h-4.1C40.5,155.6,40.5,155.5,40.5,155.4z"/>
	<path class="st0" d="M66,147c0.7,0.4,1.3,0.9,1.8,1.6c0.4,0.7,0.7,1.4,0.7,2.3c0,0.8-0.2,1.6-0.7,2.4c-0.4,0.7-1,1.3-1.8,1.7
		c-0.7,0.4-1.5,0.6-2.4,0.6c-0.6,0-1.1-0.1-1.7-0.3c-0.5-0.2-1-0.5-1.4-0.8c-0.6,0.7-1.5,1.1-2.6,1.1h-1.5c-0.1,0-0.2-0.1-0.2-0.2
		v-2.8c0-0.1,0.1-0.2,0.2-0.2H58c0.3,0,0.5-0.1,0.7-0.3c0.2-0.2,0.3-0.4,0.3-0.7v-1.8h-1.4v-3.1h6C64.5,146.4,65.3,146.6,66,147z
		 M64.7,152c0.3-0.3,0.4-0.6,0.4-1c0-0.4-0.1-0.7-0.4-1c-0.3-0.3-0.6-0.4-1.1-0.4h-1.5v1.4c0,0.4,0.1,0.8,0.4,1
		c0.3,0.3,0.6,0.4,1,0.4C64,152.4,64.4,152.2,64.7,152z"/>
	<path class="st0" d="M74.2,157.7c0.4-0.4,0.7-0.7,0.9-1.2c0.1-0.4,0.2-1,0.2-1.8v-7.2h3.2v7.2c0,1.2-0.2,2.2-0.5,3
		c-0.3,0.8-0.8,1.5-1.6,2.1c-0.8,0.6-1.8,1.3-3.3,2l-1.2-2.6C73,158.5,73.7,158,74.2,157.7z"/>
	<path class="st0" d="M85.7,152.3c0.3,0,0.6-0.1,0.8-0.3c0.2-0.2,0.3-0.4,0.3-0.7c0-0.2-0.1-0.4-0.2-0.5c-0.1-0.2-0.3-0.3-0.7-0.5
		l-4.6-3.1l1.8-2.6l5.2,3.5c0.6,0.4,1,0.9,1.3,1.4c0.3,0.5,0.4,1.1,0.4,1.8c0,0.8-0.2,1.5-0.6,2.2c-0.4,0.7-1,1.2-1.6,1.6
		c-0.7,0.4-1.4,0.6-2.3,0.6h-5.3v-3.3H85.7z"/>
	<path class="st0" d="M98.6,147.5v2.4c0,0.6,0.2,1.2,0.7,1.7c0.5,0.5,1,0.7,1.7,0.7h7c0.4,0,0.8-0.1,1-0.4c0.3-0.3,0.4-0.6,0.4-1
		v-3.3h3.2v3.8c0,0.3,0.1,0.5,0.3,0.7c0.2,0.2,0.4,0.3,0.7,0.3h0.9c0.1,0,0.2,0.1,0.2,0.2v2.8c0,0.1-0.1,0.2-0.2,0.2h-0.9
		c-1.1,0-2-0.4-2.7-1.2c-0.8,0.8-1.8,1.2-2.9,1.2h-7c-1,0-1.9-0.2-2.8-0.7c-0.9-0.5-1.5-1.1-2-2c-0.5-0.8-0.8-1.7-0.8-2.7v-2.6H98.6
		z M100.7,144.8h2.8v2.8h-2.8V144.8z M104.7,144.8h2.8v2.8h-2.8V144.8z"/>
	<path class="st0" d="M114.4,155.4v-2.8c0-0.1,0.1-0.2,0.2-0.2h4.6c1.1,0,2.1-0.3,2.9-1l2.1-1.9l-3.1-1.4c-0.3-0.1-0.5-0.2-0.7-0.2
		c-0.2,0-0.4,0-0.6,0.1c-0.2,0.1-0.3,0.2-0.5,0.3l-2,2.2l-2.2-1.9l2-2.4c0.4-0.5,0.9-0.8,1.5-1.1c0.6-0.2,1.1-0.4,1.7-0.4
		c0.4,0,0.8,0,1,0.1c0.3,0.1,0.6,0.2,0.9,0.4l4.7,2.2c0.1,0,0.2,0.1,0.4,0.1h2.4v3h-2.4l-3.6,3.3c-0.7,0.6-1.5,1.1-2.3,1.4
		c-0.9,0.3-1.8,0.5-2.7,0.5h-4.1C114.5,155.6,114.4,155.5,114.4,155.4z M119.1,140.3h2.8v2.8h-2.8V140.3z"/>
	<path class="st0" d="M131.6,141.1h3.2v14.5h-3.2V141.1z"/>
	<path class="st0" d="M142.1,152.3c0.3,0,0.6-0.1,0.8-0.3c0.2-0.2,0.3-0.4,0.3-0.7c0-0.2-0.1-0.4-0.2-0.5s-0.3-0.3-0.7-0.5l-4.6-3.1
		l1.8-2.6l5.2,3.5c0.6,0.4,1,0.9,1.3,1.4c0.3,0.5,0.4,1.1,0.4,1.8c0,0.8-0.2,1.5-0.6,2.2c-0.4,0.7-1,1.2-1.6,1.6
		c-0.7,0.4-1.4,0.6-2.3,0.6h-5.3v-3.3H142.1z"/>
	<path class="st0" d="M153.5,152.6v2.8c0,0.1-0.1,0.2-0.2,0.2h-0.9c-0.4,0-0.7,0-1-0.1c-0.1,1-0.3,1.9-0.6,2.6
		c-0.3,0.7-0.9,1.3-1.6,1.9c-0.7,0.6-1.8,1.2-3.1,1.8l-1.2-2.6c1-0.6,1.8-1.1,2.2-1.4c0.4-0.4,0.7-0.7,0.9-1.2
		c0.1-0.4,0.2-1,0.2-1.8v-7.2h3.2v3.8c0,0.3,0.1,0.5,0.3,0.7c0.2,0.2,0.4,0.3,0.7,0.3h0.9C153.4,152.3,153.5,152.4,153.5,152.6z"/>
	<path class="st0" d="M153.1,155.4v-2.8c0-0.1,0.1-0.2,0.2-0.2h2.4c0.3,0,0.5-0.1,0.7-0.3c0.2-0.2,0.3-0.4,0.3-0.7v-4.4h3.2v4.6
		c0,0.7-0.2,1.4-0.6,2c-0.4,0.6-0.9,1.1-1.5,1.5c-0.6,0.4-1.3,0.5-2.1,0.5h-2.4C153.1,155.6,153.1,155.5,153.1,155.4z M153.3,157.4
		h2.8v2.8h-2.8V157.4z M155.3,161.3h2.8v2.8h-2.8V161.3z M157.2,157.4h2.8v2.8h-2.8V157.4z"/>
</g>
</svg>
